<svg xmlns="http://www.w3.org/2000/svg" viewBox="0 0 100 110" fill="none">
  <!-- Pin body -->
  <path d="M50 4 C27 4, 8 23, 8 46 C8 68, 30 88, 50 106 C70 88, 92 68, 92 46 C92 23, 73 4, 50 4Z" fill="#0d2e5e"/>
  <!-- White circle -->
  <circle cx="50" cy="40" r="15" fill="white"/>
  <!-- Road curve -->
  <path d="M20 90 Q36 68, 50 56 Q60 48, 62 36" fill="none" stroke="white" stroke-width="3" stroke-linecap="round" stroke-dasharray="5,4"/>
  <!-- Road nodes -->
  <circle cx="42" cy="64" r="5" fill="white" stroke="#0d2e5e" stroke-width="2"/>
  <circle cx="22" cy="88" r="4.5" fill="#f5a420"/>
  <circle cx="62" cy="36" r="4.5" fill="#f5a420"/>
  <!-- Chart bars -->
  <rect x="62" y="68" width="7" height="14" rx="1.5" fill="#f5a420"/>
  <rect x="72" y="60" width="7" height="22" rx="1.5" fill="#f5a420"/>
  <!-- Arrow -->
  <line x1="74" y1="30" x2="94" y2="8" stroke="#f5a420" stroke-width="3.5" stroke-linecap="round"/>
  <polygon points="94,8 83,9 90,18" fill="#f5a420"/>
</svg>
